<svg xmlns="http://www.w3.org/2000/svg" width="1000" height="543"><rect width="1000" height="543" x="0" y="0" fill="#FFFFFF" id="backgorund"/><g id="viz"><g transform="translate(0,0)"><g transform="translate(50,20)"><g class="bars"><rect id="undefined - Animation" x="0.9989373007438758" y="494.82625" height="8.173749999999984" width="92.90116896918173" fill="#8fdbc9"/><rect id="undefined - Comedy" x="94.89904357066949" y="241.44" height="261.56" width="92.90116896918173" fill="#8fdbc9"/><rect id="undefined - Docu-Series" x="188.7991498405951" y="440.125" height="62.875" width="92.90116896918173" fill="#8fdbc9"/><rect id="undefined - Drama" x="282.6992561105207" y="275.3925" height="227.60750000000002" width="92.90116896918173" fill="#8fdbc9"/><rect id="undefined - Family Animation" x="376.59936238044634" y="46.52750000000001" height="456.47249999999997" width="92.90116896918173" fill="#8fdbc9"/><rect id="undefined - Family Live Action" x="470.49946865037197" y="472.19124999999997" height="30.808750000000032" width="92.90116896918173" fill="#8fdbc9"/><rect id="undefined - Foreign Language" x="564.3995749202975" y="443.89750000000004" height="59.102499999999964" width="92.90116896918173" fill="#8fdbc9"/><rect id="undefined - Marvel" x="658.2996811902233" y="462.13124999999997" height="40.868750000000034" width="92.90116896918173" fill="#8fdbc9"/><rect id="undefined - Reality" x="752.1997874601489" y="490.425" height="12.574999999999989" width="92.90116896918173" fill="#8fdbc9"/><rect id="undefined - Talk Show" x="846.0998937300744" y="438.23875" height="64.76125000000002" width="92.90116896918173" fill="#8fdbc9"/></g><g id="xAxis" transform="translate(0,503)" fill="none" font-size="10" font-family="sans-serif" text-anchor="middle"><path class="domain" stroke="currentColor" d="M0,0H940"/><g class="tick" opacity="1" transform="translate(47.44952178533474,0)"><line stroke="currentColor" y2="6"/><text fill="currentColor" y="9" dy="0.71em">Animation</text></g><g class="tick" opacity="1" transform="translate(141.34962805526035,0)"><line stroke="currentColor" y2="6"/><text fill="currentColor" y="9" dy="0.71em">Comedy</text></g><g class="tick" opacity="1" transform="translate(235.24973432518595,0)"><line stroke="currentColor" y2="6"/><text fill="currentColor" y="9" dy="0.71em">Docu-Series</text></g><g class="tick" opacity="1" transform="translate(329.1498405951116,0)"><line stroke="currentColor" y2="6"/><text fill="currentColor" y="9" dy="0.71em">Drama</text></g><g class="tick" opacity="1" transform="translate(423.0499468650372,0)"><line stroke="currentColor" y2="6"/><text fill="currentColor" y="9" dy="0.71em">Family Animation</text></g><g class="tick" opacity="1" transform="translate(516.9500531349628,0)"><line stroke="currentColor" y2="6"/><text fill="currentColor" y="9" dy="0.71em">Family Live Action</text></g><g class="tick" opacity="1" transform="translate(610.8501594048884,0)"><line stroke="currentColor" y2="6"/><text fill="currentColor" y="9" dy="0.71em">Foreign Language</text></g><g class="tick" opacity="1" transform="translate(704.7502656748142,0)"><line stroke="currentColor" y2="6"/><text fill="currentColor" y="9" dy="0.71em">Marvel</text></g><g class="tick" opacity="1" transform="translate(798.6503719447397,0)"><line stroke="currentColor" y2="6"/><text fill="currentColor" y="9" dy="0.71em">Reality</text></g><g class="tick" opacity="1" transform="translate(892.5504782146653,0)"><line stroke="currentColor" y2="6"/><text fill="currentColor" y="9" dy="0.71em">Talk Show</text></g><text x="940" y="-4" text-anchor="end" style="font-family: Arial, sans-serif; font-size: 12px; fill: rgb(123, 123, 123); font-weight: bold;">Genere</text></g><g id="yAxis" fill="none" font-size="10" font-family="sans-serif" text-anchor="end"><path class="domain" stroke="currentColor" d="M-6,503H0V0H-6"/><g class="tick" opacity="1" transform="translate(0,503)"><line stroke="currentColor" x2="-6"/><text fill="currentColor" x="-9" dy="0.32em">0</text></g><g class="tick" opacity="1" transform="translate(0,440.125)"><line stroke="currentColor" x2="-6"/><text fill="currentColor" x="-9" dy="0.32em">100</text></g><g class="tick" opacity="1" transform="translate(0,377.25)"><line stroke="currentColor" x2="-6"/><text fill="currentColor" x="-9" dy="0.32em">200</text></g><g class="tick" opacity="1" transform="translate(0,314.375)"><line stroke="currentColor" x2="-6"/><text fill="currentColor" x="-9" dy="0.32em">300</text></g><g class="tick" opacity="1" transform="translate(0,251.5)"><line stroke="currentColor" x2="-6"/><text fill="currentColor" x="-9" dy="0.32em">400</text></g><g class="tick" opacity="1" transform="translate(0,188.625)"><line stroke="currentColor" x2="-6"/><text fill="currentColor" x="-9" dy="0.32em">500</text></g><g class="tick" opacity="1" transform="translate(0,125.75)"><line stroke="currentColor" x2="-6"/><text fill="currentColor" x="-9" dy="0.32em">600</text></g><g class="tick" opacity="1" transform="translate(0,62.875)"><line stroke="currentColor" x2="-6"/><text fill="currentColor" x="-9" dy="0.32em">700</text></g><g class="tick" opacity="1" transform="translate(0,0)"><line stroke="currentColor" x2="-6"/><text fill="currentColor" x="-9" dy="0.32em">800</text></g><text x="4" text-anchor="start" dominant-baseline="hanging" style="font-family: Arial, sans-serif; font-size: 12px; fill: rgb(123, 123, 123); font-weight: bold;">Episodes [sum]</text></g></g><text y="4" x="4" style="font-family: Arial, sans-serif; font-size: 12px; fill: black; font-weight: bold; dominant-baseline: hanging;"/></g></g></svg>